<?xml version="1.0" encoding="UTF-8" standalone="no"?>
<!-- Created with Inkscape (http://www.inkscape.org/) -->

<svg
   xmlns:dc="http://purl.org/dc/elements/1.1/"
   xmlns:cc="http://creativecommons.org/ns#"
   xmlns:rdf="http://www.w3.org/1999/02/22-rdf-syntax-ns#"
   xmlns:svg="http://www.w3.org/2000/svg"
   xmlns="http://www.w3.org/2000/svg"
   xmlns:sodipodi="http://sodipodi.sourceforge.net/DTD/sodipodi-0.dtd"
   xmlns:inkscape="http://www.inkscape.org/namespaces/inkscape"
   width="1814.1732"
   height="1814.1732"
   id="svg2987"
   version="1.1"
   inkscape:version="0.48.4 r"
   sodipodi:docname="write_profile.svg">
  <defs
     id="defs2989" />
  <sodipodi:namedview
     inkscape:document-units="mm"
     pagecolor="#ffffff"
     bordercolor="#666666"
     borderopacity="1.0"
     inkscape:pageopacity="0.0"
     inkscape:pageshadow="2"
     inkscape:zoom="0.35355339"
     inkscape:cx="-770.4836"
     inkscape:cy="595.42835"
     inkscape:current-layer="layer1"
     id="namedview2991"
     showgrid="true"
     showguides="false"
     units="mm"
     inkscape:window-width="1920"
     inkscape:window-height="1017"
     inkscape:window-x="1912"
     inkscape:window-y="-8"
     inkscape:window-maximized="1">
    <inkscape:grid
       type="xygrid"
       id="grid2996"
       empspacing="5"
       visible="true"
       enabled="true"
       snapvisiblegridlinesonly="true" />
  </sodipodi:namedview>
  <metadata
     id="metadata2993">
    <rdf:RDF>
      <cc:Work
         rdf:about="">
        <dc:format>image/svg+xml</dc:format>
        <dc:type
           rdf:resource="http://purl.org/dc/dcmitype/StillImage" />
        <dc:title></dc:title>
      </cc:Work>
    </rdf:RDF>
  </metadata>
  <g
     inkscape:label="Layer 1"
     inkscape:groupmode="layer"
     id="layer1"
     transform="translate(0,1070.0789)">
    <path
       sodipodi:type="arc"
       style="fill:none;stroke:#000000;stroke-width:10.35433081;stroke-miterlimit:4;stroke-opacity:1;stroke-dasharray:none"
       id="path2998"
       sodipodi:cx="510"
       sodipodi:cy="394.09448"
       sodipodi:rx="250"
       sodipodi:ry="250"
       d="m 760,394.09448 c 0,138.07119 -111.92881,250 -250,250 -138.07119,0 -250,-111.92881 -250,-250 0,-138.07119 111.92881,-250 250,-250 138.07119,0 250,111.92881 250,250 z"
       transform="matrix(3.4220532,0,0,3.4220532,-859.42037,-1490.3447)" />
    <path
       id="path4622"
       d="M 448.73571,69.472984 322.82055,378.74258 c -1.93599,4.13008 -3.16238,8.61622 -3.16238,13.45609 0,17.81255 14.42436,32.23776 32.26949,32.23776 4.87254,0 9.39021,-1.25917 13.48848,-3.19511 L 674.62101,295.35799 1248.7898,-278.81018 1022.9041,-504.69518 448.73571,69.472984 z m 0,258.154606 -32.26951,-32.2696 96.80801,-225.885006 161.3468,161.346916 -225.8853,96.80769 z M 1384.547,-640.45279 c -64.5387,-64.53915 -129.0774,-96.80773 -193.6162,-32.26965 l -33.6571,33.65734 225.8857,225.88503 33.6569,-33.65617 c 64.5387,-64.53922 32.2692,-129.07844 -32.2693,-193.61655 z m -324.0813,98.19543 225.8857,225.88613 59.2466,-59.24664 -225.8857,-225.88614 -59.2466,59.24665 z"
       inkscape:connector-curvature="0"
       style="fill:#000000;stroke:#0099ff;stroke-width:1.52056742;stroke-miterlimit:4;stroke-dasharray:none" />
  </g>
</svg>
