<?xml version="1.0" encoding="UTF-8" standalone="no"?>
<!-- Created with Inkscape (http://www.inkscape.org/) -->

<svg
   xmlns:dc="http://purl.org/dc/elements/1.1/"
   xmlns:cc="http://creativecommons.org/ns#"
   xmlns:rdf="http://www.w3.org/1999/02/22-rdf-syntax-ns#"
   xmlns:svg="http://www.w3.org/2000/svg"
   xmlns="http://www.w3.org/2000/svg"
   xmlns:sodipodi="http://sodipodi.sourceforge.net/DTD/sodipodi-0.dtd"
   xmlns:inkscape="http://www.inkscape.org/namespaces/inkscape"
   width="1814.1732"
   height="1814.1732"
   id="svg2987"
   version="1.1"
   inkscape:version="0.48.4 r"
   sodipodi:docname="network_state.svg">
  <defs
     id="defs2989" />
  <sodipodi:namedview
     inkscape:document-units="mm"
     pagecolor="#ffffff"
     bordercolor="#666666"
     borderopacity="1.0"
     inkscape:pageopacity="0.0"
     inkscape:pageshadow="2"
     inkscape:zoom="0.35355339"
     inkscape:cx="1686.4443"
     inkscape:cy="627.95527"
     inkscape:current-layer="layer1"
     id="namedview2991"
     showgrid="true"
     showguides="false"
     units="mm"
     inkscape:window-width="1920"
     inkscape:window-height="1017"
     inkscape:window-x="1912"
     inkscape:window-y="-8"
     inkscape:window-maximized="1">
    <inkscape:grid
       type="xygrid"
       id="grid2996"
       empspacing="5"
       visible="true"
       enabled="true"
       snapvisiblegridlinesonly="true" />
  </sodipodi:namedview>
  <metadata
     id="metadata2993">
    <rdf:RDF>
      <cc:Work
         rdf:about="">
        <dc:format>image/svg+xml</dc:format>
        <dc:type
           rdf:resource="http://purl.org/dc/dcmitype/StillImage" />
        <dc:title></dc:title>
      </cc:Work>
    </rdf:RDF>
  </metadata>
  <g
     inkscape:label="Layer 1"
     inkscape:groupmode="layer"
     id="layer1"
     transform="translate(0,1070.0789)">
    <path
       sodipodi:type="arc"
       style="fill:none;stroke:#000000;stroke-width:10.35433081;stroke-miterlimit:4;stroke-opacity:1;stroke-dasharray:none"
       id="path2998"
       sodipodi:cx="510"
       sodipodi:cy="394.09448"
       sodipodi:rx="250"
       sodipodi:ry="250"
       d="m 760,394.09448 c 0,138.07119 -111.92881,250 -250,250 -138.07119,0 -250,-111.92881 -250,-250 0,-138.07119 111.92881,-250 250,-250 138.07119,0 250,111.92881 250,250 z"
       transform="matrix(3.4220532,0,0,3.4220532,-859.42037,-1490.3447)" />
    <path
       id="path6015"
       d="m 1297.7726,-515.48452 h -150.3929 v 65.99049 c 0,26.6295 -13.0776,64.79192 -52.3106,64.79192 h -26.1553 c -39.233,0 -52.3105,-38.16242 -52.3105,-64.79192 v -65.99049 H 755.05034 v 65.99049 c 0,26.6295 -13.07768,64.79192 -52.3106,64.79192 h -26.1553 c -39.23295,0 -52.31061,-16.55431 -52.31061,-64.79192 v -65.99049 H 473.88091 c -32.51103,0 -58.84943,32.39592 -58.84943,72.37254 v 820.03867 c 0,24.13501 19.61648,48.27003 39.23296,48.27003 h 863.12466 c 19.6164,0 39.2329,-24.13502 39.2329,-48.23761 v -820.07109 c 0,-39.97662 -26.3644,-72.37254 -58.8494,-72.37254 z m 6.5389,843.49331 c 0,26.6295 -4.4987,32.39601 -26.1553,32.39601 H 493.49735 c -21.68273,0 -26.15526,-5.76651 -26.15526,-32.39601 V -287.51426 H 1304.3115 V 328.00879 z M 676.58444,-417.09802 h 26.1553 c 21.68274,0 26.15526,-5.76651 26.15526,-32.39601 v -226.7716 c 0,-26.6295 -4.47252,-32.39592 -26.15526,-32.39592 h -26.1553 c -21.68274,0 -26.15531,5.76642 -26.15531,32.39592 v 226.7716 c 0,26.6295 4.47257,32.39601 26.15531,32.39601 z m 392.32936,0 h 26.1553 c 21.6566,0 26.1553,-5.76651 26.1553,-32.39601 v -226.7716 c 0,-26.6295 -4.4987,-32.39592 -26.1553,-32.39592 h -26.1553 c -21.6565,0 -26.1553,5.76642 -26.1553,32.39592 v 226.7716 c 0,26.6295 4.4988,32.39601 26.1553,32.39601 z M 859.67149,263.4113 964.29264,263.08736 v -453.54329 h -78.46582 l -104.62123,64.79184 v 97.187858 l 78.4659,-38.227218 v 329.98516 z"
       inkscape:connector-curvature="0"
       style="fill:#000000" />
  </g>
</svg>
